<svg width="100" height="32" viewBox="0 0 100 32" fill="none" xmlns="http://www.w3.org/2000/svg">
<path d="M27.1184 12.1551C28.7948 12.1551 30.06 12.5263 30.9142 13.2687C31.7763 14.011 32.2074 15.1685 32.2074 16.7411V25.6618H30.2077L29.6689 23.7819H29.5731C29.1979 24.2609 28.8108 24.656 28.4116 24.9673C28.0125 25.2787 27.5495 25.5102 27.0226 25.6618C26.5037 25.8215 25.8691 25.9013 25.1187 25.9013C24.3284 25.9013 23.622 25.7576 22.9993 25.4703C22.3767 25.1749 21.8857 24.7279 21.5265 24.1292C21.1673 23.5305 20.9877 22.7721 20.9877 21.8541C20.9877 20.489 21.4946 19.4633 22.5084 18.7767C23.5302 18.0902 25.0708 17.711 27.1304 17.6392L29.4294 17.5554V16.8609C29.4294 15.9429 29.2139 15.2883 28.7828 14.8971C28.3597 14.506 27.761 14.3104 26.9867 14.3104C26.3241 14.3104 25.6815 14.4062 25.0589 14.5978C24.4362 14.7894 23.8295 15.0249 23.2388 15.3042L22.3288 13.3165C22.9754 12.9733 23.7098 12.6939 24.532 12.4784C25.3622 12.2628 26.2243 12.1551 27.1184 12.1551ZM29.4174 19.3275L27.7051 19.3874C26.3002 19.4353 25.3143 19.6748 24.7475 20.1059C24.1808 20.5369 23.8974 21.1276 23.8974 21.878C23.8974 22.5326 24.093 23.0116 24.4841 23.3149C24.8753 23.6103 25.3902 23.758 26.0288 23.758C27.0027 23.758 27.8089 23.4826 28.4475 22.9317C29.0941 22.373 29.4174 21.5547 29.4174 20.4771V19.3275Z" fill="black"/>
<path d="M41.6382 12.1551C41.8617 12.1551 42.1052 12.167 42.3686 12.191C42.6321 12.2149 42.8596 12.2469 43.0512 12.2868L42.7877 14.9211C42.6201 14.8732 42.4125 14.8373 42.1651 14.8133C41.9256 14.7894 41.7101 14.7774 41.5185 14.7774C41.0156 14.7774 40.5366 14.8612 40.0816 15.0288C39.6266 15.1885 39.2234 15.436 38.8722 15.7712C38.521 16.0985 38.2456 16.5096 38.046 17.0046C37.8464 17.4995 37.7466 18.0743 37.7466 18.7288V25.6618H34.9207V12.4065H37.124L37.5072 14.7415H37.6389C37.9023 14.2705 38.2296 13.8394 38.6207 13.4483C39.0119 13.0571 39.4589 12.7458 39.9618 12.5143C40.4727 12.2748 41.0315 12.1551 41.6382 12.1551Z" fill="black"/>
<path d="M51.081 12.1551C52.6536 12.1551 53.9149 12.7298 54.8648 13.8793C55.8227 15.0288 56.3017 16.7371 56.3017 19.0042C56.3017 20.505 56.0782 21.7703 55.6312 22.8C55.1921 23.8218 54.5734 24.5961 53.7752 25.123C52.9849 25.6419 52.0629 25.9013 51.0092 25.9013C50.3386 25.9013 49.7559 25.8135 49.2609 25.6379C48.766 25.4623 48.3429 25.2348 47.9917 24.9554C47.6404 24.668 47.3451 24.3567 47.1056 24.0214H46.938C46.9779 24.3407 47.0138 24.6959 47.0457 25.0871C47.0856 25.4703 47.1056 25.8215 47.1056 26.1408V31.5411H44.2797V12.4065H46.5787L46.9739 14.2386H47.1056C47.3531 13.8634 47.6524 13.5161 48.0037 13.1968C48.3629 12.8775 48.7939 12.626 49.2969 12.4424C49.8078 12.2509 50.4025 12.1551 51.081 12.1551ZM50.3266 14.4541C49.5523 14.4541 48.9296 14.6098 48.4587 14.9211C47.9957 15.2244 47.6564 15.6834 47.4409 16.2981C47.2333 16.9128 47.1216 17.6831 47.1056 18.6091V19.0042C47.1056 19.9861 47.2054 20.8203 47.4049 21.5068C47.6125 22.1854 47.9518 22.7042 48.4227 23.0635C48.9017 23.4147 49.5483 23.5903 50.3626 23.5903C51.0491 23.5903 51.6158 23.4027 52.0629 23.0275C52.5179 22.6524 52.8572 22.1175 53.0807 21.423C53.3042 20.7285 53.416 19.9103 53.416 18.9683C53.416 17.5394 53.1605 16.4298 52.6496 15.6395C52.1467 14.8492 51.3724 14.4541 50.3266 14.4541Z" fill="black"/>
<path d="M69.8875 12.4065V25.6618H67.6723L67.2892 23.8777H67.1335C66.8541 24.3327 66.4989 24.7119 66.0678 25.0152C65.6367 25.3106 65.1578 25.5301 64.6309 25.6738C64.104 25.8255 63.5492 25.9013 62.9665 25.9013C61.9687 25.9013 61.1145 25.7337 60.404 25.3984C59.7016 25.0552 59.1627 24.5283 58.7875 23.8178C58.4124 23.1074 58.2248 22.1894 58.2248 21.0638V12.4065H61.0506V20.5369C61.0506 21.5667 61.2582 22.337 61.6733 22.8479C62.0964 23.3588 62.751 23.6143 63.6371 23.6143C64.4912 23.6143 65.1697 23.4387 65.6727 23.0874C66.1756 22.7362 66.5308 22.2173 66.7383 21.5308C66.9539 20.8443 67.0616 20.0021 67.0616 19.0042V12.4065H69.8875Z" fill="black"/>
<path d="M75.5226 25.6618H72.6967V7.03015H75.5226V25.6618Z" fill="black"/>
<path d="M87.2284 21.878C87.2284 22.7481 87.0169 23.4826 86.5938 24.0813C86.1707 24.68 85.5521 25.135 84.7378 25.4463C83.9316 25.7496 82.9417 25.9013 81.7682 25.9013C80.8422 25.9013 80.044 25.8335 79.3734 25.6978C78.7109 25.57 78.0842 25.3705 77.4935 25.0991V22.6683C78.1241 22.9637 78.8306 23.2191 79.6129 23.4347C80.4032 23.6502 81.1496 23.758 81.8521 23.758C82.7781 23.758 83.4446 23.6143 83.8517 23.3269C84.2589 23.0315 84.4624 22.6404 84.4624 22.1534C84.4624 21.8661 84.3786 21.6106 84.211 21.3871C84.0513 21.1556 83.748 20.9201 83.3009 20.6806C82.8619 20.4332 82.2153 20.1378 81.3611 19.7945C80.5229 19.4593 79.8165 19.124 79.2417 18.7887C78.667 18.4534 78.2319 18.0503 77.9365 17.5793C77.6412 17.1004 77.4935 16.4897 77.4935 15.7473C77.4935 14.5738 77.9565 13.6838 78.8825 13.0771C79.8165 12.4624 81.0498 12.1551 82.5825 12.1551C83.3967 12.1551 84.1631 12.2389 84.8815 12.4065C85.6079 12.5662 86.3184 12.8017 87.0129 13.113L86.1268 15.2324C85.5281 14.969 84.9254 14.7534 84.3187 14.5858C83.72 14.4102 83.1093 14.3224 82.4867 14.3224C81.7603 14.3224 81.2055 14.4341 80.8223 14.6576C80.4471 14.8812 80.2595 15.2005 80.2595 15.6156C80.2595 15.9269 80.3513 16.1903 80.5349 16.4059C80.7185 16.6214 81.0338 16.8369 81.4809 17.0525C81.9359 17.268 82.5665 17.5354 83.3728 17.8547C84.1631 18.1581 84.8456 18.4774 85.4203 18.8127C86.0031 19.1399 86.4501 19.5431 86.7615 20.022C87.0728 20.501 87.2284 21.1197 87.2284 21.878Z" fill="black"/>
<path d="M94.3243 12.1551C95.5057 12.1551 96.5195 12.3985 97.3657 12.8855C98.2119 13.3724 98.8625 14.0629 99.3175 14.957C99.7725 15.8511 100 16.9208 100 18.1661V19.6748H91.1512C91.1831 20.96 91.5263 21.9499 92.1809 22.6444C92.8435 23.3389 93.7695 23.6861 94.9589 23.6861C95.8051 23.6861 96.5635 23.6063 97.234 23.4466C97.9125 23.279 98.611 23.0355 99.3295 22.7162V25.0033C98.6669 25.3146 97.9924 25.5421 97.3058 25.6858C96.6193 25.8295 95.7971 25.9013 94.8392 25.9013C93.538 25.9013 92.3925 25.6499 91.4026 25.147C90.4207 24.6361 89.6504 23.8777 89.0916 22.8719C88.5408 21.8661 88.2654 20.6168 88.2654 19.124C88.2654 17.6392 88.5169 16.3779 89.0198 15.3402C89.5227 14.3024 90.2291 13.5121 91.1392 12.9693C92.0492 12.4265 93.1109 12.1551 94.3243 12.1551ZM94.3243 14.2745C93.4382 14.2745 92.7198 14.5619 92.169 15.1366C91.6261 15.7114 91.3068 16.5535 91.211 17.6631H97.246C97.238 17.0006 97.1262 16.4138 96.9107 15.903C96.7031 15.3921 96.3838 14.9929 95.9528 14.7055C95.5297 14.4182 94.9869 14.2745 94.3243 14.2745Z" fill="black"/>
<path d="M23.0313 0.039036C23.6383 0.201983 23.9978 0.826054 23.8353 1.43316L17.7337 24.2045C17.6096 24.6676 17.209 25.0035 16.7313 25.0444C16.2536 25.0851 15.8015 24.8227 15.6006 24.3875L12.7712 18.2568L12.7644 18.2397L11.3036 14.9434L8.56491 24.2318C8.42975 24.6898 8.02187 25.0151 7.5454 25.0461C7.0691 25.0768 6.62503 24.8069 6.43181 24.3704L4.01817 18.9188H1.13925C0.510438 18.9188 0 18.4083 0 17.7795C0 17.1507 0.510438 16.6403 1.13925 16.6403H4.75885L4.92478 16.6539C5.30712 16.7105 5.63934 16.959 5.79889 17.3194L7.25802 20.6139L9.99838 11.3272L10.0617 11.1613C10.2364 10.7921 10.5996 10.5403 11.0162 10.5129C11.4927 10.482 11.9382 10.752 12.1315 11.1886L14.8393 17.3023L16.3498 20.5746L21.6355 0.844721C21.7983 0.237336 22.424 -0.123712 23.0313 0.039036Z" fill="black"/>
</svg>
