<svg width="1200" height="630" viewBox="0 0 1200 630" fill="none" xmlns="http://www.w3.org/2000/svg">
<rect width="1200" height="630" fill="black"/>
<path d="M488.547 269.962C496.679 269.962 502.816 271.762 506.96 275.364C511.142 278.965 513.233 284.58 513.233 292.208V335.481H503.533L500.919 326.361H500.454C498.634 328.685 496.756 330.602 494.82 332.112C492.884 333.622 490.638 334.745 488.082 335.481C485.565 336.255 482.487 336.642 478.847 336.642C475.013 336.642 471.586 335.945 468.566 334.551C465.546 333.119 463.164 330.95 461.422 328.046C459.679 325.142 458.808 321.463 458.808 317.01C458.808 310.388 461.267 305.412 466.185 302.082C471.141 298.752 478.615 296.913 488.605 296.564L499.757 296.158V292.789C499.757 288.336 498.712 285.161 496.621 283.263C494.568 281.366 491.664 280.417 487.908 280.417C484.694 280.417 481.577 280.882 478.556 281.811C475.536 282.74 472.593 283.883 469.728 285.238L465.313 275.596C468.45 273.931 472.012 272.576 476.001 271.53C480.028 270.485 484.21 269.962 488.547 269.962ZM499.699 304.754L491.393 305.045C484.578 305.277 479.796 306.439 477.046 308.53C474.297 310.621 472.922 313.486 472.922 317.126C472.922 320.301 473.871 322.625 475.768 324.096C477.666 325.529 480.163 326.245 483.261 326.245C487.985 326.245 491.896 324.909 494.994 322.238C498.131 319.527 499.699 315.558 499.699 310.33V304.754Z" fill="white"/>
<path d="M558.98 269.962C560.064 269.962 561.245 270.02 562.523 270.136C563.801 270.252 564.904 270.407 565.834 270.601L564.556 283.379C563.743 283.147 562.736 282.973 561.535 282.857C560.374 282.74 559.328 282.682 558.399 282.682C555.959 282.682 553.636 283.089 551.429 283.902C549.222 284.676 547.266 285.877 545.562 287.503C543.858 289.091 542.523 291.085 541.554 293.486C540.586 295.887 540.102 298.675 540.102 301.85V335.481H526.395V271.182H537.082L538.941 282.508H539.58C540.857 280.223 542.445 278.132 544.343 276.235C546.24 274.338 548.408 272.827 550.848 271.704C553.326 270.543 556.037 269.962 558.98 269.962Z" fill="white"/>
<path d="M604.785 269.962C612.413 269.962 618.531 272.75 623.139 278.326C627.786 283.902 630.11 292.189 630.11 303.186C630.11 310.466 629.025 316.603 626.857 321.599C624.727 326.555 621.726 330.311 617.854 332.867C614.02 335.384 609.548 336.642 604.436 336.642C601.184 336.642 598.357 336.216 595.956 335.364C593.555 334.513 591.503 333.409 589.799 332.054C588.095 330.66 586.663 329.15 585.501 327.523H584.688C584.881 329.072 585.056 330.795 585.211 332.693C585.404 334.551 585.501 336.255 585.501 337.804V364H571.793V271.182H582.945L584.862 280.069H585.501C586.701 278.249 588.153 276.564 589.857 275.015C591.6 273.466 593.691 272.247 596.13 271.356C598.609 270.427 601.493 269.962 604.785 269.962ZM601.126 281.114C597.369 281.114 594.349 281.869 592.064 283.379C589.819 284.851 588.173 287.077 587.127 290.059C586.12 293.041 585.578 296.777 585.501 301.269V303.186C585.501 307.949 585.985 311.995 586.953 315.326C587.96 318.617 589.606 321.134 591.89 322.876C594.214 324.58 597.35 325.432 601.3 325.432C604.63 325.432 607.379 324.522 609.548 322.702C611.755 320.882 613.401 318.288 614.485 314.919C615.569 311.55 616.111 307.581 616.111 303.012C616.111 296.08 614.872 290.698 612.394 286.864C609.954 283.031 606.198 281.114 601.126 281.114Z" fill="white"/>
<path d="M696.012 271.182V335.481H685.266L683.408 326.826H682.652C681.297 329.033 679.574 330.873 677.483 332.344C675.392 333.777 673.069 334.842 670.513 335.539C667.957 336.274 665.266 336.642 662.439 336.642C657.599 336.642 653.456 335.829 650.009 334.203C646.602 332.538 643.988 329.982 642.168 326.536C640.348 323.089 639.438 318.636 639.438 313.176V271.182H653.146V310.621C653.146 315.616 654.153 319.353 656.166 321.831C658.218 324.309 661.394 325.548 665.692 325.548C669.835 325.548 673.127 324.696 675.566 322.993C678.006 321.289 679.729 318.772 680.736 315.442C681.781 312.112 682.304 308.026 682.304 303.186V271.182H696.012Z" fill="white"/>
<path d="M723.346 335.481H709.638V245.102H723.346V335.481Z" fill="white"/>
<path d="M780.129 317.126C780.129 321.347 779.103 324.909 777.051 327.814C774.999 330.718 771.997 332.925 768.048 334.435C764.137 335.907 759.335 336.642 753.643 336.642C749.151 336.642 745.279 336.313 742.026 335.655C738.812 335.035 735.772 334.067 732.907 332.751V320.96C735.966 322.392 739.393 323.632 743.188 324.677C747.021 325.723 750.642 326.245 754.049 326.245C758.541 326.245 761.775 325.548 763.75 324.154C765.724 322.722 766.712 320.824 766.712 318.462C766.712 317.068 766.305 315.829 765.492 314.745C764.718 313.622 763.246 312.479 761.078 311.318C758.948 310.117 755.811 308.685 751.668 307.019C747.602 305.393 744.175 303.767 741.387 302.14C738.599 300.514 736.489 298.559 735.056 296.274C733.623 293.951 732.907 290.988 732.907 287.387C732.907 281.695 735.153 277.377 739.645 274.434C744.175 271.453 750.158 269.962 757.593 269.962C761.542 269.962 765.26 270.368 768.745 271.182C772.269 271.956 775.715 273.098 779.084 274.609L774.786 284.889C771.881 283.612 768.958 282.566 766.015 281.753C763.111 280.901 760.148 280.475 757.128 280.475C753.604 280.475 750.913 281.017 749.054 282.101C747.234 283.186 746.324 284.735 746.324 286.748C746.324 288.258 746.77 289.536 747.66 290.582C748.551 291.627 750.08 292.673 752.249 293.718C754.456 294.764 757.515 296.061 761.426 297.61C765.26 299.081 768.571 300.63 771.359 302.257C774.185 303.844 776.354 305.8 777.864 308.123C779.374 310.446 780.129 313.447 780.129 317.126Z" fill="white"/>
<path d="M814.55 269.962C820.281 269.962 825.199 271.143 829.303 273.505C833.408 275.867 836.564 279.217 838.771 283.554C840.978 287.89 842.082 293.079 842.082 299.12V306.439H799.158C799.313 312.673 800.978 317.475 804.153 320.843C807.367 324.212 811.859 325.897 817.628 325.897C821.733 325.897 825.412 325.51 828.664 324.735C831.956 323.922 835.344 322.741 838.829 321.192V332.286C835.615 333.796 832.343 334.9 829.013 335.597C825.683 336.294 821.694 336.642 817.048 336.642C810.736 336.642 805.179 335.423 800.377 332.983C795.614 330.505 791.878 326.826 789.167 321.947C786.495 317.068 785.159 311.008 785.159 303.767C785.159 296.564 786.379 290.446 788.819 285.412C791.258 280.378 794.685 276.545 799.1 273.912C803.514 271.278 808.664 269.962 814.55 269.962ZM814.55 280.243C810.252 280.243 806.767 281.637 804.095 284.425C801.462 287.213 799.913 291.298 799.448 296.681H828.722C828.684 293.467 828.142 290.62 827.096 288.142C826.089 285.664 824.54 283.728 822.449 282.334C820.397 280.94 817.764 280.243 814.55 280.243Z" fill="white"/>
<path d="M468.721 211.189C471.665 211.98 473.409 215.007 472.621 217.952L443.023 328.411C442.421 330.658 440.477 332.287 438.16 332.485C435.843 332.683 433.65 331.41 432.675 329.299L418.951 299.56L418.918 299.477L411.831 283.487L398.547 328.544C397.891 330.765 395.913 332.344 393.601 332.494C391.291 332.643 389.137 331.333 388.199 329.216L376.491 302.771H362.526C359.476 302.771 357 300.295 357 297.245C357 294.195 359.476 291.719 362.526 291.719H380.084L380.889 291.785C382.744 292.059 384.355 293.265 385.129 295.013L392.207 310.994L405.5 265.946L405.807 265.141C406.655 263.35 408.417 262.129 410.437 261.996C412.749 261.846 414.91 263.156 415.848 265.274L428.983 294.93L436.31 310.803L461.95 215.098C462.739 212.151 465.774 210.4 468.721 211.189Z" fill="white"/>
<path d="M430.114 413V395.545H436.011C437.375 395.545 438.494 395.778 439.369 396.244C440.244 396.705 440.892 397.338 441.312 398.145C441.733 398.952 441.943 399.869 441.943 400.898C441.943 401.926 441.733 402.838 441.312 403.634C440.892 404.429 440.247 405.054 439.378 405.509C438.509 405.957 437.398 406.182 436.045 406.182H431.273V404.273H435.977C436.909 404.273 437.659 404.136 438.227 403.864C438.801 403.591 439.216 403.205 439.472 402.705C439.733 402.199 439.864 401.597 439.864 400.898C439.864 400.199 439.733 399.588 439.472 399.065C439.21 398.543 438.793 398.139 438.219 397.855C437.645 397.565 436.886 397.42 435.943 397.42H432.227V413H430.114ZM438.33 405.159L442.625 413H440.17L435.943 405.159H438.33ZM450.54 413.273C449.279 413.273 448.191 412.994 447.276 412.438C446.367 411.875 445.665 411.091 445.171 410.085C444.683 409.074 444.438 407.898 444.438 406.557C444.438 405.216 444.683 404.034 445.171 403.011C445.665 401.983 446.353 401.182 447.234 400.608C448.12 400.028 449.154 399.739 450.336 399.739C451.018 399.739 451.691 399.852 452.356 400.08C453.021 400.307 453.626 400.676 454.171 401.188C454.717 401.693 455.151 402.364 455.475 403.199C455.799 404.034 455.961 405.062 455.961 406.284V407.136H445.87V405.398H453.915C453.915 404.659 453.768 404 453.472 403.42C453.183 402.841 452.768 402.384 452.228 402.048C451.694 401.713 451.063 401.545 450.336 401.545C449.535 401.545 448.842 401.744 448.256 402.142C447.677 402.534 447.231 403.045 446.918 403.676C446.606 404.307 446.45 404.983 446.45 405.705V406.864C446.45 407.852 446.62 408.69 446.961 409.378C447.308 410.06 447.788 410.58 448.401 410.938C449.015 411.29 449.728 411.466 450.54 411.466C451.069 411.466 451.546 411.392 451.972 411.244C452.404 411.091 452.776 410.864 453.089 410.562C453.401 410.256 453.643 409.875 453.813 409.42L455.756 409.966C455.552 410.625 455.208 411.205 454.725 411.705C454.242 412.199 453.646 412.585 452.935 412.864C452.225 413.136 451.427 413.273 450.54 413.273ZM462.873 413.307C462.043 413.307 461.29 413.151 460.614 412.838C459.938 412.52 459.401 412.062 459.004 411.466C458.606 410.864 458.407 410.136 458.407 409.284C458.407 408.534 458.555 407.926 458.85 407.46C459.146 406.989 459.54 406.619 460.035 406.352C460.529 406.085 461.075 405.886 461.671 405.756C462.273 405.619 462.879 405.511 463.487 405.432C464.282 405.33 464.927 405.253 465.421 405.202C465.921 405.145 466.285 405.051 466.512 404.92C466.745 404.79 466.862 404.562 466.862 404.239V404.17C466.862 403.33 466.631 402.676 466.171 402.21C465.717 401.744 465.026 401.511 464.1 401.511C463.14 401.511 462.387 401.722 461.842 402.142C461.296 402.562 460.913 403.011 460.691 403.489L458.782 402.807C459.123 402.011 459.577 401.392 460.146 400.949C460.719 400.5 461.344 400.187 462.021 400.011C462.702 399.83 463.373 399.739 464.032 399.739C464.452 399.739 464.935 399.79 465.481 399.892C466.032 399.989 466.563 400.19 467.075 400.497C467.592 400.804 468.021 401.267 468.362 401.886C468.702 402.506 468.873 403.335 468.873 404.375V413H466.862V411.227H466.759C466.623 411.511 466.396 411.815 466.077 412.139C465.759 412.463 465.336 412.739 464.808 412.966C464.279 413.193 463.634 413.307 462.873 413.307ZM463.18 411.5C463.975 411.5 464.646 411.344 465.191 411.031C465.742 410.719 466.157 410.315 466.435 409.821C466.719 409.327 466.862 408.807 466.862 408.261V406.42C466.776 406.523 466.589 406.616 466.299 406.702C466.015 406.781 465.685 406.852 465.31 406.915C464.941 406.972 464.58 407.023 464.228 407.068C463.881 407.108 463.6 407.142 463.384 407.17C462.862 407.239 462.373 407.349 461.918 407.503C461.469 407.651 461.106 407.875 460.827 408.176C460.555 408.472 460.418 408.875 460.418 409.386C460.418 410.085 460.677 410.614 461.194 410.972C461.717 411.324 462.379 411.5 463.18 411.5ZM474.555 395.545V413H472.544V395.545H474.555ZM485.739 404.58V406.455H478.103V404.58H485.739ZM494.972 399.909V401.614H488.188V399.909H494.972ZM490.165 396.773H492.176V409.25C492.176 409.818 492.259 410.244 492.423 410.528C492.594 410.807 492.81 410.994 493.071 411.091C493.338 411.182 493.619 411.227 493.915 411.227C494.136 411.227 494.318 411.216 494.46 411.193C494.602 411.165 494.716 411.142 494.801 411.125L495.21 412.932C495.074 412.983 494.884 413.034 494.639 413.085C494.395 413.142 494.085 413.17 493.71 413.17C493.142 413.17 492.585 413.048 492.04 412.804C491.5 412.56 491.051 412.188 490.693 411.688C490.341 411.188 490.165 410.557 490.165 409.795V396.773ZM497.997 413V399.909H500.009V413H497.997ZM499.02 397.727C498.628 397.727 498.29 397.594 498.006 397.327C497.727 397.06 497.588 396.739 497.588 396.364C497.588 395.989 497.727 395.668 498.006 395.401C498.29 395.134 498.628 395 499.02 395C499.412 395 499.747 395.134 500.026 395.401C500.31 395.668 500.452 395.989 500.452 396.364C500.452 396.739 500.31 397.06 500.026 397.327C499.747 397.594 499.412 397.727 499.02 397.727ZM503.692 413V399.909H505.636V401.955H505.806C506.079 401.256 506.519 400.713 507.127 400.327C507.735 399.935 508.465 399.739 509.317 399.739C510.181 399.739 510.9 399.935 511.474 400.327C512.053 400.713 512.505 401.256 512.829 401.955H512.965C513.3 401.278 513.803 400.741 514.474 400.344C515.144 399.94 515.948 399.739 516.886 399.739C518.056 399.739 519.013 400.105 519.758 400.838C520.502 401.565 520.874 402.699 520.874 404.239V413H518.863V404.239C518.863 403.273 518.599 402.582 518.07 402.168C517.542 401.753 516.92 401.545 516.204 401.545C515.283 401.545 514.57 401.824 514.065 402.381C513.559 402.932 513.306 403.631 513.306 404.477V413H511.261V404.034C511.261 403.29 511.019 402.69 510.536 402.236C510.053 401.776 509.431 401.545 508.67 401.545C508.147 401.545 507.658 401.685 507.204 401.963C506.755 402.241 506.391 402.628 506.113 403.122C505.84 403.611 505.704 404.176 505.704 404.818V413H503.692ZM530.04 413.273C528.779 413.273 527.691 412.994 526.776 412.438C525.867 411.875 525.165 411.091 524.671 410.085C524.183 409.074 523.938 407.898 523.938 406.557C523.938 405.216 524.183 404.034 524.671 403.011C525.165 401.983 525.853 401.182 526.734 400.608C527.62 400.028 528.654 399.739 529.836 399.739C530.518 399.739 531.191 399.852 531.856 400.08C532.521 400.307 533.126 400.676 533.671 401.188C534.217 401.693 534.651 402.364 534.975 403.199C535.299 404.034 535.461 405.062 535.461 406.284V407.136H525.37V405.398H533.415C533.415 404.659 533.268 404 532.972 403.42C532.683 402.841 532.268 402.384 531.728 402.048C531.194 401.713 530.563 401.545 529.836 401.545C529.035 401.545 528.342 401.744 527.756 402.142C527.177 402.534 526.731 403.045 526.418 403.676C526.106 404.307 525.95 404.983 525.95 405.705V406.864C525.95 407.852 526.12 408.69 526.461 409.378C526.808 410.06 527.288 410.58 527.901 410.938C528.515 411.29 529.228 411.466 530.04 411.466C530.569 411.466 531.046 411.392 531.472 411.244C531.904 411.091 532.276 410.864 532.589 410.562C532.901 410.256 533.143 409.875 533.313 409.42L535.256 409.966C535.052 410.625 534.708 411.205 534.225 411.705C533.742 412.199 533.146 412.585 532.435 412.864C531.725 413.136 530.927 413.273 530.04 413.273ZM550.589 413.273C549.362 413.273 548.305 412.983 547.418 412.403C546.532 411.824 545.85 411.026 545.373 410.009C544.896 408.991 544.657 407.83 544.657 406.523C544.657 405.193 544.901 404.02 545.39 403.003C545.884 401.98 546.572 401.182 547.452 400.608C548.339 400.028 549.373 399.739 550.555 399.739C551.475 399.739 552.305 399.909 553.043 400.25C553.782 400.591 554.387 401.068 554.859 401.682C555.33 402.295 555.623 403.011 555.737 403.83H553.725C553.572 403.233 553.231 402.705 552.702 402.244C552.18 401.778 551.475 401.545 550.589 401.545C549.805 401.545 549.117 401.75 548.526 402.159C547.941 402.562 547.484 403.134 547.154 403.872C546.83 404.605 546.668 405.466 546.668 406.455C546.668 407.466 546.827 408.347 547.146 409.097C547.469 409.847 547.924 410.429 548.509 410.844C549.1 411.259 549.793 411.466 550.589 411.466C551.112 411.466 551.586 411.375 552.012 411.193C552.438 411.011 552.799 410.75 553.094 410.409C553.39 410.068 553.6 409.659 553.725 409.182H555.737C555.623 409.955 555.342 410.651 554.893 411.27C554.45 411.884 553.862 412.372 553.129 412.736C552.401 413.094 551.555 413.273 550.589 413.273ZM563.995 413.273C562.813 413.273 561.776 412.991 560.884 412.429C559.998 411.866 559.305 411.08 558.805 410.068C558.31 409.057 558.063 407.875 558.063 406.523C558.063 405.159 558.31 403.969 558.805 402.952C559.305 401.935 559.998 401.145 560.884 400.582C561.776 400.02 562.813 399.739 563.995 399.739C565.177 399.739 566.211 400.02 567.097 400.582C567.989 401.145 568.683 401.935 569.177 402.952C569.677 403.969 569.927 405.159 569.927 406.523C569.927 407.875 569.677 409.057 569.177 410.068C568.683 411.08 567.989 411.866 567.097 412.429C566.211 412.991 565.177 413.273 563.995 413.273ZM563.995 411.466C564.893 411.466 565.631 411.236 566.211 410.776C566.79 410.315 567.219 409.71 567.498 408.96C567.776 408.21 567.915 407.398 567.915 406.523C567.915 405.648 567.776 404.832 567.498 404.077C567.219 403.321 566.79 402.71 566.211 402.244C565.631 401.778 564.893 401.545 563.995 401.545C563.097 401.545 562.359 401.778 561.779 402.244C561.2 402.71 560.771 403.321 560.492 404.077C560.214 404.832 560.075 405.648 560.075 406.523C560.075 407.398 560.214 408.21 560.492 408.96C560.771 409.71 561.2 410.315 561.779 410.776C562.359 411.236 563.097 411.466 563.995 411.466ZM575.009 405.125V413H572.997V399.909H574.94V401.955H575.111C575.418 401.29 575.884 400.756 576.509 400.352C577.134 399.943 577.94 399.739 578.929 399.739C579.815 399.739 580.591 399.92 581.256 400.284C581.92 400.642 582.438 401.188 582.807 401.92C583.176 402.648 583.361 403.568 583.361 404.682V413H581.349V404.818C581.349 403.79 581.082 402.989 580.548 402.415C580.014 401.835 579.281 401.545 578.349 401.545C577.707 401.545 577.134 401.685 576.628 401.963C576.128 402.241 575.733 402.648 575.443 403.182C575.153 403.716 575.009 404.364 575.009 405.125ZM592.866 399.909V401.614H585.809V399.909H592.866ZM587.923 413V398.102C587.923 397.352 588.099 396.727 588.451 396.227C588.803 395.727 589.261 395.352 589.823 395.102C590.386 394.852 590.979 394.727 591.604 394.727C592.099 394.727 592.502 394.767 592.815 394.847C593.127 394.926 593.36 395 593.513 395.068L592.934 396.807C592.832 396.773 592.69 396.73 592.508 396.679C592.332 396.628 592.099 396.602 591.809 396.602C591.144 396.602 590.664 396.77 590.369 397.105C590.079 397.44 589.934 397.932 589.934 398.58V413H587.923ZM597.696 395.545V413H595.685V395.545H597.696ZM601.38 413V399.909H603.391V413H601.38ZM602.403 397.727C602.011 397.727 601.673 397.594 601.388 397.327C601.11 397.06 600.971 396.739 600.971 396.364C600.971 395.989 601.11 395.668 601.388 395.401C601.673 395.134 602.011 395 602.403 395C602.795 395 603.13 395.134 603.408 395.401C603.692 395.668 603.835 395.989 603.835 396.364C603.835 396.739 603.692 397.06 603.408 397.327C603.13 397.594 602.795 397.727 602.403 397.727ZM612.393 413.273C611.166 413.273 610.109 412.983 609.223 412.403C608.337 411.824 607.655 411.026 607.178 410.009C606.7 408.991 606.462 407.83 606.462 406.523C606.462 405.193 606.706 404.02 607.195 403.003C607.689 401.98 608.376 401.182 609.257 400.608C610.143 400.028 611.178 399.739 612.359 399.739C613.28 399.739 614.109 399.909 614.848 400.25C615.587 400.591 616.192 401.068 616.663 401.682C617.135 402.295 617.428 403.011 617.541 403.83H615.53C615.376 403.233 615.036 402.705 614.507 402.244C613.984 401.778 613.28 401.545 612.393 401.545C611.609 401.545 610.922 401.75 610.331 402.159C609.746 402.562 609.288 403.134 608.959 403.872C608.635 404.605 608.473 405.466 608.473 406.455C608.473 407.466 608.632 408.347 608.95 409.097C609.274 409.847 609.729 410.429 610.314 410.844C610.905 411.259 611.598 411.466 612.393 411.466C612.916 411.466 613.391 411.375 613.817 411.193C614.243 411.011 614.604 410.75 614.899 410.409C615.195 410.068 615.405 409.659 615.53 409.182H617.541C617.428 409.955 617.146 410.651 616.697 411.27C616.254 411.884 615.666 412.372 614.933 412.736C614.206 413.094 613.359 413.273 612.393 413.273ZM626.175 399.909V401.614H619.391V399.909H626.175ZM621.368 396.773H623.379V409.25C623.379 409.818 623.462 410.244 623.626 410.528C623.797 410.807 624.013 410.994 624.274 411.091C624.541 411.182 624.822 411.227 625.118 411.227C625.339 411.227 625.521 411.216 625.663 411.193C625.805 411.165 625.919 411.142 626.004 411.125L626.413 412.932C626.277 412.983 626.087 413.034 625.842 413.085C625.598 413.142 625.288 413.17 624.913 413.17C624.345 413.17 623.788 413.048 623.243 412.804C622.703 412.56 622.254 412.188 621.896 411.688C621.544 411.188 621.368 410.557 621.368 409.795V396.773ZM635.95 413V399.909H637.962V413H635.95ZM636.973 397.727C636.581 397.727 636.243 397.594 635.959 397.327C635.68 397.06 635.541 396.739 635.541 396.364C635.541 395.989 635.68 395.668 635.959 395.401C636.243 395.134 636.581 395 636.973 395C637.365 395 637.7 395.134 637.979 395.401C638.263 395.668 638.405 395.989 638.405 396.364C638.405 396.739 638.263 397.06 637.979 397.327C637.7 397.594 637.365 397.727 636.973 397.727ZM643.657 405.125V413H641.646V399.909H643.589V401.955H643.759C644.066 401.29 644.532 400.756 645.157 400.352C645.782 399.943 646.589 399.739 647.577 399.739C648.464 399.739 649.239 399.92 649.904 400.284C650.569 400.642 651.086 401.188 651.455 401.92C651.825 402.648 652.009 403.568 652.009 404.682V413H649.998V404.818C649.998 403.79 649.731 402.989 649.197 402.415C648.663 401.835 647.93 401.545 646.998 401.545C646.356 401.545 645.782 401.685 645.276 401.963C644.776 402.241 644.381 402.648 644.092 403.182C643.802 403.716 643.657 404.364 643.657 405.125ZM661.378 399.909V401.614H654.594V399.909H661.378ZM656.571 396.773H658.582V409.25C658.582 409.818 658.665 410.244 658.83 410.528C659 410.807 659.216 410.994 659.477 411.091C659.744 411.182 660.026 411.227 660.321 411.227C660.543 411.227 660.724 411.216 660.866 411.193C661.009 411.165 661.122 411.142 661.207 411.125L661.616 412.932C661.48 412.983 661.29 413.034 661.045 413.085C660.801 413.142 660.491 413.17 660.116 413.17C659.548 413.17 658.991 413.048 658.446 412.804C657.906 412.56 657.457 412.188 657.099 411.688C656.747 411.188 656.571 410.557 656.571 409.795V396.773ZM669.751 413.273C668.49 413.273 667.402 412.994 666.487 412.438C665.578 411.875 664.876 411.091 664.382 410.085C663.893 409.074 663.649 407.898 663.649 406.557C663.649 405.216 663.893 404.034 664.382 403.011C664.876 401.983 665.564 401.182 666.445 400.608C667.331 400.028 668.365 399.739 669.547 399.739C670.229 399.739 670.902 399.852 671.567 400.08C672.232 400.307 672.837 400.676 673.382 401.188C673.928 401.693 674.362 402.364 674.686 403.199C675.01 404.034 675.172 405.062 675.172 406.284V407.136H665.081V405.398H673.126C673.126 404.659 672.979 404 672.683 403.42C672.393 402.841 671.979 402.384 671.439 402.048C670.905 401.713 670.274 401.545 669.547 401.545C668.746 401.545 668.053 401.744 667.467 402.142C666.888 402.534 666.442 403.045 666.129 403.676C665.817 404.307 665.661 404.983 665.661 405.705V406.864C665.661 407.852 665.831 408.69 666.172 409.378C666.518 410.06 666.999 410.58 667.612 410.938C668.226 411.29 668.939 411.466 669.751 411.466C670.28 411.466 670.757 411.392 671.183 411.244C671.615 411.091 671.987 410.864 672.3 410.562C672.612 410.256 672.854 409.875 673.024 409.42L674.967 409.966C674.763 410.625 674.419 411.205 673.936 411.705C673.453 412.199 672.857 412.585 672.146 412.864C671.436 413.136 670.638 413.273 669.751 413.273ZM680.243 395.545V413H678.232V395.545H680.243ZM685.938 395.545V413H683.927V395.545H685.938ZM689.622 413V399.909H691.634V413H689.622ZM690.645 397.727C690.253 397.727 689.915 397.594 689.631 397.327C689.352 397.06 689.213 396.739 689.213 396.364C689.213 395.989 689.352 395.668 689.631 395.401C689.915 395.134 690.253 395 690.645 395C691.037 395 691.372 395.134 691.651 395.401C691.935 395.668 692.077 395.989 692.077 396.364C692.077 396.739 691.935 397.06 691.651 397.327C691.372 397.594 691.037 397.727 690.645 397.727ZM700.602 418.182C699.63 418.182 698.795 418.057 698.096 417.807C697.397 417.562 696.815 417.239 696.349 416.835C695.888 416.438 695.522 416.011 695.249 415.557L696.852 414.432C697.033 414.67 697.263 414.943 697.542 415.25C697.82 415.562 698.201 415.832 698.684 416.06C699.173 416.293 699.812 416.409 700.602 416.409C701.658 416.409 702.531 416.153 703.218 415.642C703.906 415.131 704.249 414.33 704.249 413.239V410.58H704.079C703.931 410.818 703.721 411.114 703.448 411.466C703.181 411.812 702.795 412.122 702.289 412.395C701.789 412.662 701.113 412.795 700.261 412.795C699.204 412.795 698.255 412.545 697.414 412.045C696.579 411.545 695.917 410.818 695.428 409.864C694.945 408.909 694.704 407.75 694.704 406.386C694.704 405.045 694.94 403.878 695.411 402.884C695.883 401.884 696.539 401.111 697.38 400.565C698.221 400.014 699.192 399.739 700.295 399.739C701.147 399.739 701.823 399.881 702.323 400.165C702.829 400.443 703.215 400.761 703.482 401.119C703.755 401.472 703.965 401.761 704.113 401.989H704.317V399.909H706.261V413.375C706.261 414.5 706.005 415.415 705.494 416.119C704.988 416.83 704.306 417.349 703.448 417.679C702.596 418.014 701.647 418.182 700.602 418.182ZM700.533 410.989C701.34 410.989 702.022 410.804 702.579 410.435C703.136 410.065 703.559 409.534 703.849 408.841C704.138 408.148 704.283 407.318 704.283 406.352C704.283 405.409 704.141 404.577 703.857 403.855C703.573 403.134 703.153 402.568 702.596 402.159C702.039 401.75 701.352 401.545 700.533 401.545C699.681 401.545 698.971 401.761 698.403 402.193C697.84 402.625 697.417 403.205 697.133 403.932C696.854 404.659 696.715 405.466 696.715 406.352C696.715 407.261 696.857 408.065 697.141 408.764C697.431 409.457 697.857 410.003 698.42 410.401C698.988 410.793 699.692 410.989 700.533 410.989ZM715.431 413.273C714.17 413.273 713.082 412.994 712.167 412.438C711.258 411.875 710.556 411.091 710.062 410.085C709.573 409.074 709.329 407.898 709.329 406.557C709.329 405.216 709.573 404.034 710.062 403.011C710.556 401.983 711.244 401.182 712.124 400.608C713.011 400.028 714.045 399.739 715.227 399.739C715.908 399.739 716.582 399.852 717.246 400.08C717.911 400.307 718.516 400.676 719.062 401.188C719.607 401.693 720.042 402.364 720.366 403.199C720.69 404.034 720.852 405.062 720.852 406.284V407.136H710.761V405.398H718.806C718.806 404.659 718.658 404 718.363 403.42C718.073 402.841 717.658 402.384 717.119 402.048C716.585 401.713 715.954 401.545 715.227 401.545C714.425 401.545 713.732 401.744 713.147 402.142C712.567 402.534 712.121 403.045 711.809 403.676C711.496 404.307 711.34 404.983 711.34 405.705V406.864C711.34 407.852 711.511 408.69 711.852 409.378C712.198 410.06 712.678 410.58 713.292 410.938C713.906 411.29 714.619 411.466 715.431 411.466C715.96 411.466 716.437 411.392 716.863 411.244C717.295 411.091 717.667 410.864 717.979 410.562C718.292 410.256 718.533 409.875 718.704 409.42L720.647 409.966C720.442 410.625 720.099 411.205 719.616 411.705C719.133 412.199 718.536 412.585 717.826 412.864C717.116 413.136 716.317 413.273 715.431 413.273ZM725.923 405.125V413H723.911V399.909H725.854V401.955H726.025C726.332 401.29 726.798 400.756 727.423 400.352C728.048 399.943 728.854 399.739 729.843 399.739C730.729 399.739 731.505 399.92 732.17 400.284C732.835 400.642 733.352 401.188 733.721 401.92C734.09 402.648 734.275 403.568 734.275 404.682V413H732.263V404.818C732.263 403.79 731.996 402.989 731.462 402.415C730.928 401.835 730.195 401.545 729.263 401.545C728.621 401.545 728.048 401.685 727.542 401.963C727.042 402.241 726.647 402.648 726.357 403.182C726.067 403.716 725.923 404.364 725.923 405.125ZM743.268 413.273C742.041 413.273 740.984 412.983 740.098 412.403C739.212 411.824 738.53 411.026 738.053 410.009C737.575 408.991 737.337 407.83 737.337 406.523C737.337 405.193 737.581 404.02 738.07 403.003C738.564 401.98 739.251 401.182 740.132 400.608C741.018 400.028 742.053 399.739 743.234 399.739C744.155 399.739 744.984 399.909 745.723 400.25C746.462 400.591 747.067 401.068 747.538 401.682C748.01 402.295 748.303 403.011 748.416 403.83H746.405C746.251 403.233 745.911 402.705 745.382 402.244C744.859 401.778 744.155 401.545 743.268 401.545C742.484 401.545 741.797 401.75 741.206 402.159C740.621 402.562 740.163 403.134 739.834 403.872C739.51 404.605 739.348 405.466 739.348 406.455C739.348 407.466 739.507 408.347 739.825 409.097C740.149 409.847 740.604 410.429 741.189 410.844C741.78 411.259 742.473 411.466 743.268 411.466C743.791 411.466 744.266 411.375 744.692 411.193C745.118 411.011 745.479 410.75 745.774 410.409C746.07 410.068 746.28 409.659 746.405 409.182H748.416C748.303 409.955 748.021 410.651 747.572 411.27C747.129 411.884 746.541 412.372 745.808 412.736C745.081 413.094 744.234 413.273 743.268 413.273ZM756.845 413.273C755.584 413.273 754.496 412.994 753.581 412.438C752.672 411.875 751.97 411.091 751.476 410.085C750.987 409.074 750.743 407.898 750.743 406.557C750.743 405.216 750.987 404.034 751.476 403.011C751.97 401.983 752.658 401.182 753.538 400.608C754.425 400.028 755.459 399.739 756.641 399.739C757.322 399.739 757.996 399.852 758.661 400.08C759.325 400.307 759.93 400.676 760.476 401.188C761.021 401.693 761.456 402.364 761.78 403.199C762.104 404.034 762.266 405.062 762.266 406.284V407.136H752.175V405.398H760.22C760.22 404.659 760.072 404 759.777 403.42C759.487 402.841 759.072 402.384 758.533 402.048C757.999 401.713 757.368 401.545 756.641 401.545C755.839 401.545 755.146 401.744 754.561 402.142C753.982 402.534 753.536 403.045 753.223 403.676C752.911 404.307 752.754 404.983 752.754 405.705V406.864C752.754 407.852 752.925 408.69 753.266 409.378C753.612 410.06 754.092 410.58 754.706 410.938C755.32 411.29 756.033 411.466 756.845 411.466C757.374 411.466 757.851 411.392 758.277 411.244C758.709 411.091 759.081 410.864 759.393 410.562C759.706 410.256 759.947 409.875 760.118 409.42L762.061 409.966C761.857 410.625 761.513 411.205 761.03 411.705C760.547 412.199 759.95 412.585 759.24 412.864C758.53 413.136 757.732 413.273 756.845 413.273ZM766.791 413.136C766.371 413.136 766.01 412.986 765.709 412.685C765.408 412.384 765.257 412.023 765.257 411.602C765.257 411.182 765.408 410.821 765.709 410.52C766.01 410.219 766.371 410.068 766.791 410.068C767.212 410.068 767.572 410.219 767.874 410.52C768.175 410.821 768.325 411.182 768.325 411.602C768.325 411.881 768.254 412.136 768.112 412.369C767.976 412.602 767.791 412.79 767.558 412.932C767.331 413.068 767.075 413.136 766.791 413.136Z" fill="white"/>
</svg>
